# xmcd
#
# Track frame offsets: 
#        150
#        17629
#        39146
#        54703
#        73298
#        87597
#        104438
#        119484
#        138723
#        152449
#        167654
#        188190
#        202652
#        219387
#        241585
#
# Disc length: 3420 seconds
#
# Revision: 0
# Processed by: cddbd v1.5.2PL0 Copyright (c) Steve Scherf et al.
# Submitted via: ExactAudioCopy v1.3
#
DISCID=cb0d5a0f
DTITLE=EmiSunshine - Ragged Dreams
DYEAR=2018
DGENRE=Country
TTITLE0=Ragged Dreams
TTITLE1=Sinner's Serenade
TTITLE2=Strong Armed Robbery
TTITLE3=Porter Wagoner Blue
TTITLE4=Resting Place
TTITLE5=Johnny, June And Jesus
TTITLE6=Carry Me Home
TTITLE7=Ninety Miles
TTITLE8=Tennessee Killin' Song
TTITLE9=Little Blackbird
TTITLE10=As The Waters Rise
TTITLE11=KattieBelle
TTITLE12=Shame, Shame, Shame
TTITLE13=Stepping Stone
TTITLE14=Danny Ray
EXTD=
EXTT0=
EXTT1=
EXTT2=
EXTT3=
EXTT4=
EXTT5=
EXTT6=
EXTT7=
EXTT8=
EXTT9=
EXTT10=
EXTT11=
EXTT12=
EXTT13=
EXTT14=
PLAYORDER=
